<svg width="418" height="326" viewBox="0 0 418 326" fill="none" xmlns="http://www.w3.org/2000/svg">
<path d="M1.66 21V6.1H3.62V21H1.66ZM6.93344 21V6.1H16.3734V7.9H8.89344V12.72H15.6734V14.52H8.89344V21H6.93344ZM23.7136 21.24C22.7669 21.24 21.9003 21.0667 21.1136 20.72C20.3269 20.36 19.6603 19.8733 19.1136 19.26C18.5669 18.6467 18.1736 17.96 17.9336 17.2L19.6336 16.5C19.9936 17.46 20.5269 18.2 21.2336 18.72C21.9536 19.2267 22.7936 19.48 23.7536 19.48C24.3403 19.48 24.8536 19.3867 25.2936 19.2C25.7336 19.0133 26.0736 18.7533 26.3136 18.42C26.5669 18.0733 26.6936 17.6733 26.6936 17.22C26.6936 16.5933 26.5136 16.1 26.1536 15.74C25.8069 15.3667 25.2936 15.0867 24.6136 14.9L21.8736 14.06C20.7936 13.7267 19.9669 13.2 19.3936 12.48C18.8203 11.76 18.5336 10.9333 18.5336 10C18.5336 9.18667 18.7269 8.47333 19.1136 7.86C19.5136 7.23333 20.0603 6.74667 20.7536 6.4C21.4603 6.04 22.2603 5.86 23.1536 5.86C24.0469 5.86 24.8536 6.02 25.5736 6.34C26.3069 6.66 26.9269 7.09333 27.4336 7.64C27.9403 8.17333 28.3136 8.78667 28.5536 9.48L26.8736 10.18C26.5536 9.34 26.0736 8.70667 25.4336 8.28C24.7936 7.84 24.0403 7.62 23.1736 7.62C22.6403 7.62 22.1669 7.71333 21.7536 7.9C21.3536 8.07333 21.0403 8.33333 20.8136 8.68C20.6003 9.01333 20.4936 9.41333 20.4936 9.88C20.4936 10.4267 20.6669 10.9133 21.0136 11.34C21.3603 11.7667 21.8869 12.0933 22.5936 12.32L25.0936 13.06C26.2669 13.42 27.1536 13.9333 27.7536 14.6C28.3536 15.2667 28.6536 16.0933 28.6536 17.08C28.6536 17.8933 28.4403 18.6133 28.0136 19.24C27.6003 19.8667 27.0203 20.36 26.2736 20.72C25.5403 21.0667 24.6869 21.24 23.7136 21.24ZM38.3833 21.24C37.3299 21.24 36.3566 21.0533 35.4633 20.68C34.5833 20.2933 33.8099 19.7533 33.1433 19.06C32.4899 18.3667 31.9833 17.5533 31.6233 16.62C31.2633 15.6867 31.0833 14.6667 31.0833 13.56C31.0833 12.44 31.2633 11.4133 31.6233 10.48C31.9833 9.54667 32.4899 8.73333 33.1433 8.04C33.7966 7.34667 34.5699 6.81333 35.4633 6.44C36.3566 6.05333 37.3299 5.86 38.3833 5.86C39.4099 5.86 40.3299 6.04 41.1433 6.4C41.9699 6.76 42.6633 7.22667 43.2233 7.8C43.7966 8.37333 44.2033 8.98667 44.4433 9.64L42.6433 10.46C42.2966 9.63333 41.7566 8.96667 41.0233 8.46C40.2899 7.94 39.4099 7.68 38.3833 7.68C37.3433 7.68 36.4166 7.92667 35.6033 8.42C34.8033 8.91333 34.1766 9.6 33.7233 10.48C33.2699 11.36 33.0433 12.3867 33.0433 13.56C33.0433 14.72 33.2699 15.74 33.7233 16.62C34.1766 17.5 34.8033 18.1867 35.6033 18.68C36.4166 19.1733 37.3433 19.42 38.3833 19.42C39.4099 19.42 40.2899 19.1667 41.0233 18.66C41.7566 18.14 42.2966 17.4667 42.6433 16.64L44.4433 17.46C44.2033 18.1133 43.7966 18.7267 43.2233 19.3C42.6633 19.8733 41.9699 20.34 41.1433 20.7C40.3299 21.06 39.4099 21.24 38.3833 21.24ZM55.6863 21.24C54.7396 21.24 53.8729 21.0667 53.0863 20.72C52.2996 20.36 51.6329 19.8733 51.0863 19.26C50.5396 18.6467 50.1463 17.96 49.9063 17.2L51.6063 16.5C51.9663 17.46 52.4996 18.2 53.2063 18.72C53.9263 19.2267 54.7663 19.48 55.7263 19.48C56.3129 19.48 56.8263 19.3867 57.2663 19.2C57.7063 19.0133 58.0463 18.7533 58.2863 18.42C58.5396 18.0733 58.6663 17.6733 58.6663 17.22C58.6663 16.5933 58.4863 16.1 58.1263 15.74C57.7796 15.3667 57.2663 15.0867 56.5863 14.9L53.8463 14.06C52.7663 13.7267 51.9396 13.2 51.3663 12.48C50.7929 11.76 50.5063 10.9333 50.5063 10C50.5063 9.18667 50.6996 8.47333 51.0863 7.86C51.4863 7.23333 52.0329 6.74667 52.7263 6.4C53.4329 6.04 54.2329 5.86 55.1263 5.86C56.0196 5.86 56.8263 6.02 57.5463 6.34C58.2796 6.66 58.8996 7.09333 59.4063 7.64C59.9129 8.17333 60.2863 8.78667 60.5263 9.48L58.8463 10.18C58.5263 9.34 58.0463 8.70667 57.4063 8.28C56.7663 7.84 56.0129 7.62 55.1463 7.62C54.6129 7.62 54.1396 7.71333 53.7263 7.9C53.3263 8.07333 53.0129 8.33333 52.7863 8.68C52.5729 9.01333 52.4663 9.41333 52.4663 9.88C52.4663 10.4267 52.6396 10.9133 52.9863 11.34C53.3329 11.7667 53.8596 12.0933 54.5663 12.32L57.0663 13.06C58.2396 13.42 59.1263 13.9333 59.7263 14.6C60.3263 15.2667 60.6263 16.0933 60.6263 17.08C60.6263 17.8933 60.4129 18.6133 59.9863 19.24C59.5729 19.8667 58.9929 20.36 58.2463 20.72C57.5129 21.0667 56.6596 21.24 55.6863 21.24ZM68.2359 21.24C67.1959 21.24 66.2693 20.9933 65.4559 20.5C64.6426 20.0067 64.0026 19.3333 63.5359 18.48C63.0693 17.6133 62.8359 16.6467 62.8359 15.58C62.8359 14.5 63.0626 13.54 63.5159 12.7C63.9826 11.86 64.6093 11.2 65.3959 10.72C66.1959 10.2267 67.0893 9.98 68.0759 9.98C68.8759 9.98 69.5826 10.1267 70.1959 10.42C70.8226 10.7 71.3493 11.0867 71.7759 11.58C72.2159 12.06 72.5493 12.6133 72.7759 13.24C73.0159 13.8533 73.1359 14.4933 73.1359 15.16C73.1359 15.3067 73.1226 15.4733 73.0959 15.66C73.0826 15.8333 73.0626 16 73.0359 16.16H64.1959V14.56H71.9559L71.0759 15.28C71.1959 14.5867 71.1293 13.9667 70.8759 13.42C70.6226 12.8733 70.2493 12.44 69.7559 12.12C69.2626 11.8 68.7026 11.64 68.0759 11.64C67.4493 11.64 66.8759 11.8 66.3559 12.12C65.8359 12.44 65.4293 12.9 65.1359 13.5C64.8559 14.0867 64.7426 14.7867 64.7959 15.6C64.7426 16.3867 64.8626 17.08 65.1559 17.68C65.4626 18.2667 65.8893 18.7267 66.4359 19.06C66.9959 19.38 67.6026 19.54 68.2559 19.54C68.9759 19.54 69.5826 19.3733 70.0759 19.04C70.5693 18.7067 70.9693 18.28 71.2759 17.76L72.8359 18.56C72.6226 19.0533 72.2893 19.5067 71.8359 19.92C71.3959 20.32 70.8693 20.64 70.2559 20.88C69.6559 21.12 68.9826 21.24 68.2359 21.24ZM78.5844 21.24C77.8777 21.24 77.251 21.1133 76.7044 20.86C76.171 20.5933 75.751 20.2333 75.4444 19.78C75.1377 19.3133 74.9844 18.78 74.9844 18.18C74.9844 17.6067 75.1044 17.0933 75.3444 16.64C75.5977 16.1733 75.9844 15.78 76.5044 15.46C77.0377 15.14 77.7044 14.9133 78.5044 14.78L82.5044 14.12V15.68L78.9244 16.28C78.231 16.4 77.7244 16.62 77.4044 16.94C77.0977 17.26 76.9444 17.6533 76.9444 18.12C76.9444 18.56 77.1177 18.9267 77.4644 19.22C77.8244 19.5133 78.271 19.66 78.8044 19.66C79.4844 19.66 80.071 19.52 80.5644 19.24C81.071 18.9467 81.4644 18.5533 81.7444 18.06C82.0377 17.5667 82.1844 17.02 82.1844 16.42V13.68C82.1844 13.0933 81.9644 12.62 81.5244 12.26C81.0977 11.8867 80.531 11.7 79.8244 11.7C79.211 11.7 78.6644 11.86 78.1844 12.18C77.7177 12.4867 77.371 12.9 77.1444 13.42L75.5244 12.58C75.7244 12.0867 76.0444 11.6467 76.4844 11.26C76.9244 10.86 77.4377 10.5467 78.0244 10.32C78.611 10.0933 79.2244 9.98 79.8644 9.98C80.691 9.98 81.4177 10.14 82.0444 10.46C82.671 10.7667 83.1577 11.2 83.5044 11.76C83.8644 12.3067 84.0444 12.9467 84.0444 13.68V21H82.2244V18.96L82.5644 19.08C82.3377 19.5067 82.031 19.88 81.6444 20.2C81.2577 20.52 80.8044 20.7733 80.2844 20.96C79.7644 21.1467 79.1977 21.24 78.5844 21.24ZM86.9283 21V10.22H88.7483V12.2L88.5483 11.92C88.8016 11.3067 89.1883 10.8533 89.7083 10.56C90.2283 10.2533 90.8616 10.1 91.6083 10.1H92.2683V11.86H91.3283C90.5683 11.86 89.9549 12.1 89.4883 12.58C89.0216 13.0467 88.7883 13.7133 88.7883 14.58V21H86.9283ZM98.9205 21.24C97.8671 21.24 96.9271 20.9933 96.1005 20.5C95.2871 20.0067 94.6471 19.3333 94.1805 18.48C93.7138 17.6267 93.4805 16.6667 93.4805 15.6C93.4805 14.52 93.7138 13.56 94.1805 12.72C94.6471 11.88 95.2871 11.2133 96.1005 10.72C96.9271 10.2267 97.8671 9.98 98.9205 9.98C99.6271 9.98 100.287 10.1067 100.9 10.36C101.514 10.6133 102.054 10.9533 102.52 11.38C102.987 11.8067 103.327 12.3067 103.54 12.88L101.88 13.68C101.627 13.12 101.24 12.6667 100.72 12.32C100.2 11.96 99.6005 11.78 98.9205 11.78C98.2671 11.78 97.6738 11.9467 97.1405 12.28C96.6205 12.6133 96.2071 13.0667 95.9005 13.64C95.5938 14.2133 95.4405 14.8733 95.4405 15.62C95.4405 16.34 95.5938 16.9933 95.9005 17.58C96.2071 18.1533 96.6205 18.6067 97.1405 18.94C97.6738 19.2733 98.2671 19.44 98.9205 19.44C99.6005 19.44 100.2 19.2667 100.72 18.92C101.24 18.56 101.627 18.0867 101.88 17.5L103.54 18.34C103.327 18.9 102.987 19.4 102.52 19.84C102.054 20.2667 101.514 20.6067 100.9 20.86C100.287 21.1133 99.6271 21.24 98.9205 21.24ZM105.971 21V5.86H107.831V12.32L107.491 12.14C107.758 11.46 108.185 10.9333 108.771 10.56C109.371 10.1733 110.071 9.98 110.871 9.98C111.645 9.98 112.331 10.1533 112.931 10.5C113.545 10.8467 114.025 11.3267 114.371 11.94C114.731 12.5533 114.911 13.2467 114.911 14.02V21H113.031V14.62C113.031 14.02 112.918 13.5133 112.691 13.1C112.478 12.6867 112.178 12.3667 111.791 12.14C111.405 11.9 110.958 11.78 110.451 11.78C109.958 11.78 109.511 11.9 109.111 12.14C108.711 12.3667 108.398 12.6933 108.171 13.12C107.945 13.5333 107.831 14.0333 107.831 14.62V21H105.971Z" fill="#414141"/>
<path d="M0 46C0 40.4772 4.47715 36 10 36H408C413.523 36 418 40.4772 418 46V316C418 321.523 413.523 326 408 326H10C4.47716 326 0 321.523 0 316V46Z" fill="#EDE9E7"/>
<path opacity="0.7" d="M24.66 75V60.1H26.62V75H24.66ZM29.9334 75V60.1H39.3734V61.9H31.8934V66.72H38.6734V68.52H31.8934V75H29.9334ZM46.7136 75.24C45.7669 75.24 44.9003 75.0667 44.1136 74.72C43.3269 74.36 42.6603 73.8733 42.1136 73.26C41.5669 72.6467 41.1736 71.96 40.9336 71.2L42.6336 70.5C42.9936 71.46 43.5269 72.2 44.2336 72.72C44.9536 73.2267 45.7936 73.48 46.7536 73.48C47.3403 73.48 47.8536 73.3867 48.2936 73.2C48.7336 73.0133 49.0736 72.7533 49.3136 72.42C49.5669 72.0733 49.6936 71.6733 49.6936 71.22C49.6936 70.5933 49.5136 70.1 49.1536 69.74C48.8069 69.3667 48.2936 69.0867 47.6136 68.9L44.8736 68.06C43.7936 67.7267 42.9669 67.2 42.3936 66.48C41.8203 65.76 41.5336 64.9333 41.5336 64C41.5336 63.1867 41.7269 62.4733 42.1136 61.86C42.5136 61.2333 43.0603 60.7467 43.7536 60.4C44.4603 60.04 45.2603 59.86 46.1536 59.86C47.0469 59.86 47.8536 60.02 48.5736 60.34C49.3069 60.66 49.9269 61.0933 50.4336 61.64C50.9403 62.1733 51.3136 62.7867 51.5536 63.48L49.8736 64.18C49.5536 63.34 49.0736 62.7067 48.4336 62.28C47.7936 61.84 47.0403 61.62 46.1736 61.62C45.6403 61.62 45.1669 61.7133 44.7536 61.9C44.3536 62.0733 44.0403 62.3333 43.8136 62.68C43.6003 63.0133 43.4936 63.4133 43.4936 63.88C43.4936 64.4267 43.6669 64.9133 44.0136 65.34C44.3603 65.7667 44.8869 66.0933 45.5936 66.32L48.0936 67.06C49.2669 67.42 50.1536 67.9333 50.7536 68.6C51.3536 69.2667 51.6536 70.0933 51.6536 71.08C51.6536 71.8933 51.4403 72.6133 51.0136 73.24C50.6003 73.8667 50.0203 74.36 49.2736 74.72C48.5403 75.0667 47.6869 75.24 46.7136 75.24ZM61.3833 75.24C60.3299 75.24 59.3566 75.0533 58.4633 74.68C57.5833 74.2933 56.8099 73.7533 56.1433 73.06C55.4899 72.3667 54.9833 71.5533 54.6233 70.62C54.2633 69.6867 54.0833 68.6667 54.0833 67.56C54.0833 66.44 54.2633 65.4133 54.6233 64.48C54.9833 63.5467 55.4899 62.7333 56.1433 62.04C56.7966 61.3467 57.5699 60.8133 58.4633 60.44C59.3566 60.0533 60.3299 59.86 61.3833 59.86C62.4099 59.86 63.3299 60.04 64.1433 60.4C64.9699 60.76 65.6633 61.2267 66.2233 61.8C66.7966 62.3733 67.2033 62.9867 67.4433 63.64L65.6433 64.46C65.2966 63.6333 64.7566 62.9667 64.0233 62.46C63.2899 61.94 62.4099 61.68 61.3833 61.68C60.3433 61.68 59.4166 61.9267 58.6033 62.42C57.8033 62.9133 57.1766 63.6 56.7233 64.48C56.2699 65.36 56.0433 66.3867 56.0433 67.56C56.0433 68.72 56.2699 69.74 56.7233 70.62C57.1766 71.5 57.8033 72.1867 58.6033 72.68C59.4166 73.1733 60.3433 73.42 61.3833 73.42C62.4099 73.42 63.2899 73.1667 64.0233 72.66C64.7566 72.14 65.2966 71.4667 65.6433 70.64L67.4433 71.46C67.2033 72.1133 66.7966 72.7267 66.2233 73.3C65.6633 73.8733 64.9699 74.34 64.1433 74.7C63.3299 75.06 62.4099 75.24 61.3833 75.24Z" fill="#414141"/>
<path opacity="0.7" d="M29.78 136.24C28.8333 136.24 27.9667 136.067 27.18 135.72C26.3933 135.36 25.7267 134.873 25.18 134.26C24.6333 133.647 24.24 132.96 24 132.2L25.7 131.5C26.06 132.46 26.5933 133.2 27.3 133.72C28.02 134.227 28.86 134.48 29.82 134.48C30.4067 134.48 30.92 134.387 31.36 134.2C31.8 134.013 32.14 133.753 32.38 133.42C32.6333 133.073 32.76 132.673 32.76 132.22C32.76 131.593 32.58 131.1 32.22 130.74C31.8733 130.367 31.36 130.087 30.68 129.9L27.94 129.06C26.86 128.727 26.0333 128.2 25.46 127.48C24.8867 126.76 24.6 125.933 24.6 125C24.6 124.187 24.7933 123.473 25.18 122.86C25.58 122.233 26.1267 121.747 26.82 121.4C27.5267 121.04 28.3267 120.86 29.22 120.86C30.1133 120.86 30.92 121.02 31.64 121.34C32.3733 121.66 32.9933 122.093 33.5 122.64C34.0067 123.173 34.38 123.787 34.62 124.48L32.94 125.18C32.62 124.34 32.14 123.707 31.5 123.28C30.86 122.84 30.1067 122.62 29.24 122.62C28.7067 122.62 28.2333 122.713 27.82 122.9C27.42 123.073 27.1067 123.333 26.88 123.68C26.6667 124.013 26.56 124.413 26.56 124.88C26.56 125.427 26.7333 125.913 27.08 126.34C27.4267 126.767 27.9533 127.093 28.66 127.32L31.16 128.06C32.3333 128.42 33.22 128.933 33.82 129.6C34.42 130.267 34.72 131.093 34.72 132.08C34.72 132.893 34.5067 133.613 34.08 134.24C33.6667 134.867 33.0867 135.36 32.34 135.72C31.6067 136.067 30.7533 136.24 29.78 136.24ZM42.3297 136.24C41.2897 136.24 40.363 135.993 39.5497 135.5C38.7364 135.007 38.0964 134.333 37.6297 133.48C37.163 132.613 36.9297 131.647 36.9297 130.58C36.9297 129.5 37.1564 128.54 37.6097 127.7C38.0764 126.86 38.703 126.2 39.4897 125.72C40.2897 125.227 41.183 124.98 42.1697 124.98C42.9697 124.98 43.6764 125.127 44.2897 125.42C44.9164 125.7 45.443 126.087 45.8697 126.58C46.3097 127.06 46.643 127.613 46.8697 128.24C47.1097 128.853 47.2297 129.493 47.2297 130.16C47.2297 130.307 47.2164 130.473 47.1897 130.66C47.1764 130.833 47.1564 131 47.1297 131.16H38.2897V129.56H46.0497L45.1697 130.28C45.2897 129.587 45.223 128.967 44.9697 128.42C44.7164 127.873 44.343 127.44 43.8497 127.12C43.3564 126.8 42.7964 126.64 42.1697 126.64C41.543 126.64 40.9697 126.8 40.4497 127.12C39.9297 127.44 39.523 127.9 39.2297 128.5C38.9497 129.087 38.8364 129.787 38.8897 130.6C38.8364 131.387 38.9564 132.08 39.2497 132.68C39.5564 133.267 39.983 133.727 40.5297 134.06C41.0897 134.38 41.6964 134.54 42.3497 134.54C43.0697 134.54 43.6764 134.373 44.1697 134.04C44.663 133.707 45.063 133.28 45.3697 132.76L46.9297 133.56C46.7164 134.053 46.383 134.507 45.9297 134.92C45.4897 135.32 44.963 135.64 44.3497 135.88C43.7497 136.12 43.0764 136.24 42.3297 136.24ZM49.6548 136V120.86H51.5148V136H49.6548ZM59.3609 136.24C58.3209 136.24 57.3943 135.993 56.5809 135.5C55.7676 135.007 55.1276 134.333 54.6609 133.48C54.1943 132.613 53.9609 131.647 53.9609 130.58C53.9609 129.5 54.1876 128.54 54.6409 127.7C55.1076 126.86 55.7343 126.2 56.5209 125.72C57.3209 125.227 58.2143 124.98 59.2009 124.98C60.0009 124.98 60.7076 125.127 61.3209 125.42C61.9476 125.7 62.4743 126.087 62.9009 126.58C63.3409 127.06 63.6743 127.613 63.9009 128.24C64.1409 128.853 64.2609 129.493 64.2609 130.16C64.2609 130.307 64.2476 130.473 64.2209 130.66C64.2076 130.833 64.1876 131 64.1609 131.16H55.3209V129.56H63.0809L62.2009 130.28C62.3209 129.587 62.2543 128.967 62.0009 128.42C61.7476 127.873 61.3743 127.44 60.8809 127.12C60.3876 126.8 59.8276 126.64 59.2009 126.64C58.5743 126.64 58.0009 126.8 57.4809 127.12C56.9609 127.44 56.5543 127.9 56.2609 128.5C55.9809 129.087 55.8676 129.787 55.9209 130.6C55.8676 131.387 55.9876 132.08 56.2809 132.68C56.5876 133.267 57.0143 133.727 57.5609 134.06C58.1209 134.38 58.7276 134.54 59.3809 134.54C60.1009 134.54 60.7076 134.373 61.2009 134.04C61.6943 133.707 62.0943 133.28 62.4009 132.76L63.9609 133.56C63.7476 134.053 63.4143 134.507 62.9609 134.92C62.5209 135.32 61.9943 135.64 61.3809 135.88C60.7809 136.12 60.1076 136.24 59.3609 136.24ZM71.6861 136.24C70.6328 136.24 69.6928 135.993 68.8661 135.5C68.0528 135.007 67.4128 134.333 66.9461 133.48C66.4794 132.627 66.2461 131.667 66.2461 130.6C66.2461 129.52 66.4794 128.56 66.9461 127.72C67.4128 126.88 68.0528 126.213 68.8661 125.72C69.6928 125.227 70.6328 124.98 71.6861 124.98C72.3928 124.98 73.0528 125.107 73.6661 125.36C74.2794 125.613 74.8194 125.953 75.2861 126.38C75.7528 126.807 76.0928 127.307 76.3061 127.88L74.6461 128.68C74.3928 128.12 74.0061 127.667 73.4861 127.32C72.9661 126.96 72.3661 126.78 71.6861 126.78C71.0328 126.78 70.4394 126.947 69.9061 127.28C69.3861 127.613 68.9728 128.067 68.6661 128.64C68.3594 129.213 68.2061 129.873 68.2061 130.62C68.2061 131.34 68.3594 131.993 68.6661 132.58C68.9728 133.153 69.3861 133.607 69.9061 133.94C70.4394 134.273 71.0328 134.44 71.6861 134.44C72.3661 134.44 72.9661 134.267 73.4861 133.92C74.0061 133.56 74.3928 133.087 74.6461 132.5L76.3061 133.34C76.0928 133.9 75.7528 134.4 75.2861 134.84C74.8194 135.267 74.2794 135.607 73.6661 135.86C73.0528 136.113 72.3928 136.24 71.6861 136.24ZM83.1169 136.12C82.0635 136.12 81.2502 135.82 80.6769 135.22C80.1169 134.62 79.8369 133.773 79.8369 132.68V127H77.8769V125.22H78.2769C78.7569 125.22 79.1369 125.073 79.4169 124.78C79.6969 124.487 79.8369 124.1 79.8369 123.62V122.74H81.6969V125.22H84.1169V127H81.6969V132.62C81.6969 132.98 81.7502 133.293 81.8569 133.56C81.9769 133.827 82.1702 134.04 82.4369 134.2C82.7035 134.347 83.0569 134.42 83.4969 134.42C83.5902 134.42 83.7035 134.413 83.8369 134.4C83.9835 134.387 84.1169 134.373 84.2369 134.36V136C84.0635 136.04 83.8702 136.067 83.6569 136.08C83.4435 136.107 83.2635 136.12 83.1169 136.12ZM95.4636 136.24C94.5169 136.24 93.6503 136.067 92.8636 135.72C92.0769 135.36 91.4103 134.873 90.8636 134.26C90.3169 133.647 89.9236 132.96 89.6836 132.2L91.3836 131.5C91.7436 132.46 92.2769 133.2 92.9836 133.72C93.7036 134.227 94.5436 134.48 95.5036 134.48C96.0903 134.48 96.6036 134.387 97.0436 134.2C97.4836 134.013 97.8236 133.753 98.0636 133.42C98.3169 133.073 98.4436 132.673 98.4436 132.22C98.4436 131.593 98.2636 131.1 97.9036 130.74C97.5569 130.367 97.0436 130.087 96.3636 129.9L93.6236 129.06C92.5436 128.727 91.7169 128.2 91.1436 127.48C90.5703 126.76 90.2836 125.933 90.2836 125C90.2836 124.187 90.4769 123.473 90.8636 122.86C91.2636 122.233 91.8103 121.747 92.5036 121.4C93.2103 121.04 94.0103 120.86 94.9036 120.86C95.7969 120.86 96.6036 121.02 97.3236 121.34C98.0569 121.66 98.6769 122.093 99.1836 122.64C99.6903 123.173 100.064 123.787 100.304 124.48L98.6236 125.18C98.3036 124.34 97.8236 123.707 97.1836 123.28C96.5436 122.84 95.7903 122.62 94.9236 122.62C94.3903 122.62 93.9169 122.713 93.5036 122.9C93.1036 123.073 92.7903 123.333 92.5636 123.68C92.3503 124.013 92.2436 124.413 92.2436 124.88C92.2436 125.427 92.4169 125.913 92.7636 126.34C93.1103 126.767 93.6369 127.093 94.3436 127.32L96.8436 128.06C98.0169 128.42 98.9036 128.933 99.5036 129.6C100.104 130.267 100.404 131.093 100.404 132.08C100.404 132.893 100.19 133.613 99.7636 134.24C99.3503 134.867 98.7703 135.36 98.0236 135.72C97.2903 136.067 96.4369 136.24 95.4636 136.24ZM107.433 136.12C106.38 136.12 105.567 135.82 104.993 135.22C104.433 134.62 104.153 133.773 104.153 132.68V127H102.193V125.22H102.593C103.073 125.22 103.453 125.073 103.733 124.78C104.013 124.487 104.153 124.1 104.153 123.62V122.74H106.013V125.22H108.433V127H106.013V132.62C106.013 132.98 106.067 133.293 106.173 133.56C106.293 133.827 106.487 134.04 106.753 134.2C107.02 134.347 107.373 134.42 107.813 134.42C107.907 134.42 108.02 134.413 108.153 134.4C108.3 134.387 108.433 134.373 108.553 134.36V136C108.38 136.04 108.187 136.067 107.973 136.08C107.76 136.107 107.58 136.12 107.433 136.12ZM114.006 136.24C113.3 136.24 112.673 136.113 112.126 135.86C111.593 135.593 111.173 135.233 110.866 134.78C110.56 134.313 110.406 133.78 110.406 133.18C110.406 132.607 110.526 132.093 110.766 131.64C111.02 131.173 111.406 130.78 111.926 130.46C112.46 130.14 113.126 129.913 113.926 129.78L117.926 129.12V130.68L114.346 131.28C113.653 131.4 113.146 131.62 112.826 131.94C112.52 132.26 112.366 132.653 112.366 133.12C112.366 133.56 112.54 133.927 112.886 134.22C113.246 134.513 113.693 134.66 114.226 134.66C114.906 134.66 115.493 134.52 115.986 134.24C116.493 133.947 116.886 133.553 117.166 133.06C117.46 132.567 117.606 132.02 117.606 131.42V128.68C117.606 128.093 117.386 127.62 116.946 127.26C116.52 126.887 115.953 126.7 115.246 126.7C114.633 126.7 114.086 126.86 113.606 127.18C113.14 127.487 112.793 127.9 112.566 128.42L110.946 127.58C111.146 127.087 111.466 126.647 111.906 126.26C112.346 125.86 112.86 125.547 113.446 125.32C114.033 125.093 114.646 124.98 115.286 124.98C116.113 124.98 116.84 125.14 117.466 125.46C118.093 125.767 118.58 126.2 118.926 126.76C119.286 127.307 119.466 127.947 119.466 128.68V136H117.646V133.96L117.986 134.08C117.76 134.507 117.453 134.88 117.066 135.2C116.68 135.52 116.226 135.773 115.706 135.96C115.186 136.147 114.62 136.24 114.006 136.24ZM126.535 136.12C125.482 136.12 124.668 135.82 124.095 135.22C123.535 134.62 123.255 133.773 123.255 132.68V127H121.295V125.22H121.695C122.175 125.22 122.555 125.073 122.835 124.78C123.115 124.487 123.255 124.1 123.255 123.62V122.74H125.115V125.22H127.535V127H125.115V132.62C125.115 132.98 125.168 133.293 125.275 133.56C125.395 133.827 125.588 134.04 125.855 134.2C126.122 134.347 126.475 134.42 126.915 134.42C127.008 134.42 127.122 134.413 127.255 134.4C127.402 134.387 127.535 134.373 127.655 134.36V136C127.482 136.04 127.288 136.067 127.075 136.08C126.862 136.107 126.682 136.12 126.535 136.12ZM134.752 136.24C133.712 136.24 132.785 135.993 131.972 135.5C131.158 135.007 130.518 134.333 130.052 133.48C129.585 132.613 129.352 131.647 129.352 130.58C129.352 129.5 129.578 128.54 130.032 127.7C130.498 126.86 131.125 126.2 131.912 125.72C132.712 125.227 133.605 124.98 134.592 124.98C135.392 124.98 136.098 125.127 136.712 125.42C137.338 125.7 137.865 126.087 138.292 126.58C138.732 127.06 139.065 127.613 139.292 128.24C139.532 128.853 139.652 129.493 139.652 130.16C139.652 130.307 139.638 130.473 139.612 130.66C139.598 130.833 139.578 131 139.552 131.16H130.712V129.56H138.472L137.592 130.28C137.712 129.587 137.645 128.967 137.392 128.42C137.138 127.873 136.765 127.44 136.272 127.12C135.778 126.8 135.218 126.64 134.592 126.64C133.965 126.64 133.392 126.8 132.872 127.12C132.352 127.44 131.945 127.9 131.652 128.5C131.372 129.087 131.258 129.787 131.312 130.6C131.258 131.387 131.378 132.08 131.672 132.68C131.978 133.267 132.405 133.727 132.952 134.06C133.512 134.38 134.118 134.54 134.772 134.54C135.492 134.54 136.098 134.373 136.592 134.04C137.085 133.707 137.485 133.28 137.792 132.76L139.352 133.56C139.138 134.053 138.805 134.507 138.352 134.92C137.912 135.32 137.385 135.64 136.772 135.88C136.172 136.12 135.498 136.24 134.752 136.24Z" fill="#414141"/>
<path opacity="0.7" d="M24.66 196V181.1H30.92C31.8133 181.1 32.58 181.26 33.22 181.58C33.8733 181.9 34.3733 182.353 34.72 182.94C35.08 183.513 35.26 184.2 35.26 185C35.26 185.733 35.0667 186.4 34.68 187C34.3067 187.587 33.7533 188.047 33.02 188.38L33 187.64C33.64 187.88 34.1667 188.2 34.58 188.6C35.0067 188.987 35.3267 189.44 35.54 189.96C35.7533 190.467 35.86 191.007 35.86 191.58C35.86 192.953 35.42 194.033 34.54 194.82C33.66 195.607 32.46 196 30.94 196H24.66ZM26.62 194.2H31.02C31.8867 194.2 32.58 193.967 33.1 193.5C33.62 193.033 33.88 192.4 33.88 191.6C33.88 190.8 33.62 190.167 33.1 189.7C32.58 189.22 31.8867 188.98 31.02 188.98H26.62V194.2ZM26.62 187.22H30.88C31.6 187.22 32.18 187.013 32.62 186.6C33.06 186.173 33.28 185.633 33.28 184.98C33.28 184.3 33.06 183.78 32.62 183.42C32.18 183.06 31.6 182.88 30.88 182.88H26.62V187.22ZM38.2877 196V185.22H40.1077V187.2L39.9077 186.92C40.161 186.307 40.5477 185.853 41.0677 185.56C41.5877 185.253 42.221 185.1 42.9677 185.1H43.6277V186.86H42.6877C41.9277 186.86 41.3143 187.1 40.8477 187.58C40.381 188.047 40.1477 188.713 40.1477 189.58V196H38.2877ZM48.4398 196.24C47.7332 196.24 47.1065 196.113 46.5598 195.86C46.0265 195.593 45.6065 195.233 45.2998 194.78C44.9932 194.313 44.8398 193.78 44.8398 193.18C44.8398 192.607 44.9598 192.093 45.1998 191.64C45.4532 191.173 45.8398 190.78 46.3598 190.46C46.8932 190.14 47.5598 189.913 48.3598 189.78L52.3598 189.12V190.68L48.7798 191.28C48.0865 191.4 47.5798 191.62 47.2598 191.94C46.9532 192.26 46.7998 192.653 46.7998 193.12C46.7998 193.56 46.9732 193.927 47.3198 194.22C47.6798 194.513 48.1265 194.66 48.6598 194.66C49.3398 194.66 49.9265 194.52 50.4198 194.24C50.9265 193.947 51.3198 193.553 51.5998 193.06C51.8932 192.567 52.0398 192.02 52.0398 191.42V188.68C52.0398 188.093 51.8198 187.62 51.3798 187.26C50.9532 186.887 50.3865 186.7 49.6798 186.7C49.0665 186.7 48.5198 186.86 48.0398 187.18C47.5732 187.487 47.2265 187.9 46.9998 188.42L45.3798 187.58C45.5798 187.087 45.8998 186.647 46.3398 186.26C46.7798 185.86 47.2932 185.547 47.8798 185.32C48.4665 185.093 49.0798 184.98 49.7198 184.98C50.5465 184.98 51.2732 185.14 51.8998 185.46C52.5265 185.767 53.0132 186.2 53.3598 186.76C53.7198 187.307 53.8998 187.947 53.8998 188.68V196H52.0798V193.96L52.4198 194.08C52.1932 194.507 51.8865 194.88 51.4998 195.2C51.1132 195.52 50.6598 195.773 50.1398 195.96C49.6198 196.147 49.0532 196.24 48.4398 196.24ZM56.7838 196V185.22H58.6038V187.32L58.3038 187.14C58.5704 186.46 58.9971 185.933 59.5838 185.56C60.1838 185.173 60.8838 184.98 61.6838 184.98C62.4571 184.98 63.1438 185.153 63.7438 185.5C64.3571 185.847 64.8371 186.327 65.1838 186.94C65.5438 187.553 65.7238 188.247 65.7238 189.02V196H63.8438V189.62C63.8438 189.02 63.7371 188.513 63.5238 188.1C63.3104 187.687 63.0038 187.367 62.6038 187.14C62.2171 186.9 61.7704 186.78 61.2638 186.78C60.7571 186.78 60.3038 186.9 59.9038 187.14C59.5171 187.367 59.2104 187.693 58.9838 188.12C58.7571 188.533 58.6438 189.033 58.6438 189.62V196H56.7838ZM73.3853 196.24C72.332 196.24 71.392 195.993 70.5653 195.5C69.752 195.007 69.112 194.333 68.6453 193.48C68.1786 192.627 67.9453 191.667 67.9453 190.6C67.9453 189.52 68.1786 188.56 68.6453 187.72C69.112 186.88 69.752 186.213 70.5653 185.72C71.392 185.227 72.332 184.98 73.3853 184.98C74.092 184.98 74.752 185.107 75.3653 185.36C75.9786 185.613 76.5186 185.953 76.9853 186.38C77.452 186.807 77.792 187.307 78.0053 187.88L76.3453 188.68C76.092 188.12 75.7053 187.667 75.1853 187.32C74.6653 186.96 74.0653 186.78 73.3853 186.78C72.732 186.78 72.1386 186.947 71.6053 187.28C71.0853 187.613 70.672 188.067 70.3653 188.64C70.0586 189.213 69.9053 189.873 69.9053 190.62C69.9053 191.34 70.0586 191.993 70.3653 192.58C70.672 193.153 71.0853 193.607 71.6053 193.94C72.1386 194.273 72.732 194.44 73.3853 194.44C74.0653 194.44 74.6653 194.267 75.1853 193.92C75.7053 193.56 76.092 193.087 76.3453 192.5L78.0053 193.34C77.792 193.9 77.452 194.4 76.9853 194.84C76.5186 195.267 75.9786 195.607 75.3653 195.86C74.752 196.113 74.092 196.24 73.3853 196.24ZM80.4361 196V180.86H82.2961V187.32L81.9561 187.14C82.2228 186.46 82.6494 185.933 83.2361 185.56C83.8361 185.173 84.5361 184.98 85.3361 184.98C86.1094 184.98 86.7961 185.153 87.3961 185.5C88.0094 185.847 88.4894 186.327 88.8361 186.94C89.1961 187.553 89.3761 188.247 89.3761 189.02V196H87.4961V189.62C87.4961 189.02 87.3828 188.513 87.1561 188.1C86.9428 187.687 86.6428 187.367 86.2561 187.14C85.8694 186.9 85.4228 186.78 84.9161 186.78C84.4228 186.78 83.9761 186.9 83.5761 187.14C83.1761 187.367 82.8628 187.693 82.6361 188.12C82.4094 188.533 82.2961 189.033 82.2961 189.62V196H80.4361ZM95.7147 196V181.1H97.3547L105.915 193.14L105.175 193.22V181.1H107.155V196H105.515L96.9947 183.88L97.6747 183.8V196H95.7147ZM113.42 196.24C112.714 196.24 112.087 196.113 111.54 195.86C111.007 195.593 110.587 195.233 110.28 194.78C109.974 194.313 109.82 193.78 109.82 193.18C109.82 192.607 109.94 192.093 110.18 191.64C110.434 191.173 110.82 190.78 111.34 190.46C111.874 190.14 112.54 189.913 113.34 189.78L117.34 189.12V190.68L113.76 191.28C113.067 191.4 112.56 191.62 112.24 191.94C111.934 192.26 111.78 192.653 111.78 193.12C111.78 193.56 111.954 193.927 112.3 194.22C112.66 194.513 113.107 194.66 113.64 194.66C114.32 194.66 114.907 194.52 115.4 194.24C115.907 193.947 116.3 193.553 116.58 193.06C116.874 192.567 117.02 192.02 117.02 191.42V188.68C117.02 188.093 116.8 187.62 116.36 187.26C115.934 186.887 115.367 186.7 114.66 186.7C114.047 186.7 113.5 186.86 113.02 187.18C112.554 187.487 112.207 187.9 111.98 188.42L110.36 187.58C110.56 187.087 110.88 186.647 111.32 186.26C111.76 185.86 112.274 185.547 112.86 185.32C113.447 185.093 114.06 184.98 114.7 184.98C115.527 184.98 116.254 185.14 116.88 185.46C117.507 185.767 117.994 186.2 118.34 186.76C118.7 187.307 118.88 187.947 118.88 188.68V196H117.06V193.96L117.4 194.08C117.174 194.507 116.867 194.88 116.48 195.2C116.094 195.52 115.64 195.773 115.12 195.96C114.6 196.147 114.034 196.24 113.42 196.24ZM121.764 196V185.22H123.584V187.42L123.324 187.08C123.591 186.4 124.018 185.88 124.604 185.52C125.191 185.16 125.851 184.98 126.584 184.98C127.424 184.98 128.178 185.213 128.844 185.68C129.524 186.147 129.991 186.76 130.244 187.52L129.724 187.54C130.004 186.7 130.478 186.067 131.144 185.64C131.811 185.2 132.551 184.98 133.364 184.98C134.111 184.98 134.784 185.153 135.384 185.5C135.998 185.847 136.484 186.327 136.844 186.94C137.204 187.553 137.384 188.247 137.384 189.02V196H135.504V189.62C135.504 189.02 135.398 188.513 135.184 188.1C134.971 187.687 134.678 187.367 134.304 187.14C133.944 186.9 133.518 186.78 133.024 186.78C132.544 186.78 132.111 186.9 131.724 187.14C131.351 187.367 131.051 187.693 130.824 188.12C130.611 188.533 130.504 189.033 130.504 189.62V196H128.624V189.62C128.624 189.02 128.518 188.513 128.304 188.1C128.091 187.687 127.798 187.367 127.424 187.14C127.064 186.9 126.638 186.78 126.144 186.78C125.664 186.78 125.231 186.9 124.844 187.14C124.471 187.367 124.171 187.693 123.944 188.12C123.731 188.533 123.624 189.033 123.624 189.62V196H121.764ZM144.986 196.24C143.946 196.24 143.019 195.993 142.206 195.5C141.393 195.007 140.753 194.333 140.286 193.48C139.819 192.613 139.586 191.647 139.586 190.58C139.586 189.5 139.813 188.54 140.266 187.7C140.733 186.86 141.359 186.2 142.146 185.72C142.946 185.227 143.839 184.98 144.826 184.98C145.626 184.98 146.333 185.127 146.946 185.42C147.573 185.7 148.099 186.087 148.526 186.58C148.966 187.06 149.299 187.613 149.526 188.24C149.766 188.853 149.886 189.493 149.886 190.16C149.886 190.307 149.873 190.473 149.846 190.66C149.833 190.833 149.813 191 149.786 191.16H140.946V189.56H148.706L147.826 190.28C147.946 189.587 147.879 188.967 147.626 188.42C147.373 187.873 146.999 187.44 146.506 187.12C146.013 186.8 145.453 186.64 144.826 186.64C144.199 186.64 143.626 186.8 143.106 187.12C142.586 187.44 142.179 187.9 141.886 188.5C141.606 189.087 141.493 189.787 141.546 190.6C141.493 191.387 141.613 192.08 141.906 192.68C142.213 193.267 142.639 193.727 143.186 194.06C143.746 194.38 144.353 194.54 145.006 194.54C145.726 194.54 146.333 194.373 146.826 194.04C147.319 193.707 147.719 193.28 148.026 192.76L149.586 193.56C149.373 194.053 149.039 194.507 148.586 194.92C148.146 195.32 147.619 195.64 147.006 195.88C146.406 196.12 145.733 196.24 144.986 196.24Z" fill="#414141"/>
<path opacity="0.7" d="M31.52 255.24C30.4667 255.24 29.4933 255.053 28.6 254.68C27.72 254.293 26.9467 253.753 26.28 253.06C25.6267 252.367 25.12 251.553 24.76 250.62C24.4 249.687 24.22 248.667 24.22 247.56C24.22 246.44 24.4 245.413 24.76 244.48C25.12 243.547 25.6267 242.733 26.28 242.04C26.9333 241.347 27.7067 240.813 28.6 240.44C29.4933 240.053 30.4667 239.86 31.52 239.86C32.5467 239.86 33.4667 240.04 34.28 240.4C35.1067 240.76 35.8 241.227 36.36 241.8C36.9333 242.373 37.34 242.987 37.58 243.64L35.78 244.46C35.4333 243.633 34.8933 242.967 34.16 242.46C33.4267 241.94 32.5467 241.68 31.52 241.68C30.48 241.68 29.5533 241.927 28.74 242.42C27.94 242.913 27.3133 243.6 26.86 244.48C26.4067 245.36 26.18 246.387 26.18 247.56C26.18 248.72 26.4067 249.74 26.86 250.62C27.3133 251.5 27.94 252.187 28.74 252.68C29.5533 253.173 30.48 253.42 31.52 253.42C32.5467 253.42 33.4267 253.167 34.16 252.66C34.8933 252.14 35.4333 251.467 35.78 250.64L37.58 251.46C37.34 252.113 36.9333 252.727 36.36 253.3C35.8 253.873 35.1067 254.34 34.28 254.7C33.4667 255.06 32.5467 255.24 31.52 255.24ZM40.0259 255V244.22H41.8859V255H40.0259ZM40.0259 242.5V240.1H41.8859V242.5H40.0259ZM49.152 255.12C48.0987 255.12 47.2854 254.82 46.712 254.22C46.152 253.62 45.872 252.773 45.872 251.68V246H43.912V244.22H44.312C44.792 244.22 45.172 244.073 45.452 243.78C45.732 243.487 45.872 243.1 45.872 242.62V241.74H47.732V244.22H50.152V246H47.732V251.62C47.732 251.98 47.7854 252.293 47.892 252.56C48.012 252.827 48.2054 253.04 48.472 253.2C48.7387 253.347 49.092 253.42 49.532 253.42C49.6254 253.42 49.7387 253.413 49.872 253.4C50.0187 253.387 50.152 253.373 50.272 253.36V255C50.0987 255.04 49.9054 255.067 49.692 255.08C49.4787 255.107 49.2987 255.12 49.152 255.12ZM53.2817 259.4C53.0417 259.4 52.8017 259.38 52.5617 259.34C52.3217 259.313 52.0951 259.253 51.8817 259.16V257.5C52.0284 257.513 52.2084 257.54 52.4217 257.58C52.6484 257.62 52.8684 257.64 53.0817 257.64C53.7084 257.64 54.1817 257.5 54.5017 257.22C54.8351 256.94 55.1484 256.467 55.4417 255.8L56.1217 254.18L56.0817 255.8L51.4817 244.22H53.5017L57.0817 253.42H56.4817L60.0417 244.22H62.1017L57.2417 256.28C57.0151 256.853 56.7217 257.38 56.3617 257.86C56.0151 258.34 55.5884 258.713 55.0817 258.98C54.5751 259.26 53.9751 259.4 53.2817 259.4Z" fill="#414141"/>
<rect x="24" y="271" width="370" height="46" rx="10" fill="#E73939"/>
<path d="M174.78 302.24C173.833 302.24 172.967 302.067 172.18 301.72C171.393 301.36 170.727 300.873 170.18 300.26C169.633 299.647 169.24 298.96 169 298.2L170.7 297.5C171.06 298.46 171.593 299.2 172.3 299.72C173.02 300.227 173.86 300.48 174.82 300.48C175.407 300.48 175.92 300.387 176.36 300.2C176.8 300.013 177.14 299.753 177.38 299.42C177.633 299.073 177.76 298.673 177.76 298.22C177.76 297.593 177.58 297.1 177.22 296.74C176.873 296.367 176.36 296.087 175.68 295.9L172.94 295.06C171.86 294.727 171.033 294.2 170.46 293.48C169.887 292.76 169.6 291.933 169.6 291C169.6 290.187 169.793 289.473 170.18 288.86C170.58 288.233 171.127 287.747 171.82 287.4C172.527 287.04 173.327 286.86 174.22 286.86C175.113 286.86 175.92 287.02 176.64 287.34C177.373 287.66 177.993 288.093 178.5 288.64C179.007 289.173 179.38 289.787 179.62 290.48L177.94 291.18C177.62 290.34 177.14 289.707 176.5 289.28C175.86 288.84 175.107 288.62 174.24 288.62C173.707 288.62 173.233 288.713 172.82 288.9C172.42 289.073 172.107 289.333 171.88 289.68C171.667 290.013 171.56 290.413 171.56 290.88C171.56 291.427 171.733 291.913 172.08 292.34C172.427 292.767 172.953 293.093 173.66 293.32L176.16 294.06C177.333 294.42 178.22 294.933 178.82 295.6C179.42 296.267 179.72 297.093 179.72 298.08C179.72 298.893 179.507 299.613 179.08 300.24C178.667 300.867 178.087 301.36 177.34 301.72C176.607 302.067 175.753 302.24 174.78 302.24ZM187.33 302.24C186.29 302.24 185.363 301.993 184.55 301.5C183.736 301.007 183.096 300.333 182.63 299.48C182.163 298.613 181.93 297.647 181.93 296.58C181.93 295.5 182.156 294.54 182.61 293.7C183.076 292.86 183.703 292.2 184.49 291.72C185.29 291.227 186.183 290.98 187.17 290.98C187.97 290.98 188.676 291.127 189.29 291.42C189.916 291.7 190.443 292.087 190.87 292.58C191.31 293.06 191.643 293.613 191.87 294.24C192.11 294.853 192.23 295.493 192.23 296.16C192.23 296.307 192.216 296.473 192.19 296.66C192.176 296.833 192.156 297 192.13 297.16H183.29V295.56H191.05L190.17 296.28C190.29 295.587 190.223 294.967 189.97 294.42C189.716 293.873 189.343 293.44 188.85 293.12C188.356 292.8 187.796 292.64 187.17 292.64C186.543 292.64 185.97 292.8 185.45 293.12C184.93 293.44 184.523 293.9 184.23 294.5C183.95 295.087 183.836 295.787 183.89 296.6C183.836 297.387 183.956 298.08 184.25 298.68C184.556 299.267 184.983 299.727 185.53 300.06C186.09 300.38 186.696 300.54 187.35 300.54C188.07 300.54 188.676 300.373 189.17 300.04C189.663 299.707 190.063 299.28 190.37 298.76L191.93 299.56C191.716 300.053 191.383 300.507 190.93 300.92C190.49 301.32 189.963 301.64 189.35 301.88C188.75 302.12 188.076 302.24 187.33 302.24ZM197.678 302.24C196.971 302.24 196.345 302.113 195.798 301.86C195.265 301.593 194.845 301.233 194.538 300.78C194.231 300.313 194.078 299.78 194.078 299.18C194.078 298.607 194.198 298.093 194.438 297.64C194.691 297.173 195.078 296.78 195.598 296.46C196.131 296.14 196.798 295.913 197.598 295.78L201.598 295.12V296.68L198.018 297.28C197.325 297.4 196.818 297.62 196.498 297.94C196.191 298.26 196.038 298.653 196.038 299.12C196.038 299.56 196.211 299.927 196.558 300.22C196.918 300.513 197.365 300.66 197.898 300.66C198.578 300.66 199.165 300.52 199.658 300.24C200.165 299.947 200.558 299.553 200.838 299.06C201.131 298.567 201.278 298.02 201.278 297.42V294.68C201.278 294.093 201.058 293.62 200.618 293.26C200.191 292.887 199.625 292.7 198.918 292.7C198.305 292.7 197.758 292.86 197.278 293.18C196.811 293.487 196.465 293.9 196.238 294.42L194.618 293.58C194.818 293.087 195.138 292.647 195.578 292.26C196.018 291.86 196.531 291.547 197.118 291.32C197.705 291.093 198.318 290.98 198.958 290.98C199.785 290.98 200.511 291.14 201.138 291.46C201.765 291.767 202.251 292.2 202.598 292.76C202.958 293.307 203.138 293.947 203.138 294.68V302H201.318V299.96L201.658 300.08C201.431 300.507 201.125 300.88 200.738 301.2C200.351 301.52 199.898 301.773 199.378 301.96C198.858 302.147 198.291 302.24 197.678 302.24ZM206.022 302V291.22H207.842V293.2L207.642 292.92C207.895 292.307 208.282 291.853 208.802 291.56C209.322 291.253 209.955 291.1 210.702 291.1H211.362V292.86H210.422C209.662 292.86 209.049 293.1 208.582 293.58C208.115 294.047 207.882 294.713 207.882 295.58V302H206.022ZM218.014 302.24C216.961 302.24 216.021 301.993 215.194 301.5C214.381 301.007 213.741 300.333 213.274 299.48C212.808 298.627 212.574 297.667 212.574 296.6C212.574 295.52 212.808 294.56 213.274 293.72C213.741 292.88 214.381 292.213 215.194 291.72C216.021 291.227 216.961 290.98 218.014 290.98C218.721 290.98 219.381 291.107 219.994 291.36C220.608 291.613 221.148 291.953 221.614 292.38C222.081 292.807 222.421 293.307 222.634 293.88L220.974 294.68C220.721 294.12 220.334 293.667 219.814 293.32C219.294 292.96 218.694 292.78 218.014 292.78C217.361 292.78 216.768 292.947 216.234 293.28C215.714 293.613 215.301 294.067 214.994 294.64C214.688 295.213 214.534 295.873 214.534 296.62C214.534 297.34 214.688 297.993 214.994 298.58C215.301 299.153 215.714 299.607 216.234 299.94C216.768 300.273 217.361 300.44 218.014 300.44C218.694 300.44 219.294 300.267 219.814 299.92C220.334 299.56 220.721 299.087 220.974 298.5L222.634 299.34C222.421 299.9 222.081 300.4 221.614 300.84C221.148 301.267 220.608 301.607 219.994 301.86C219.381 302.113 218.721 302.24 218.014 302.24ZM225.065 302V286.86H226.925V293.32L226.585 293.14C226.852 292.46 227.278 291.933 227.865 291.56C228.465 291.173 229.165 290.98 229.965 290.98C230.738 290.98 231.425 291.153 232.025 291.5C232.638 291.847 233.118 292.327 233.465 292.94C233.825 293.553 234.005 294.247 234.005 295.02V302H232.125V295.62C232.125 295.02 232.012 294.513 231.785 294.1C231.572 293.687 231.272 293.367 230.885 293.14C230.498 292.9 230.052 292.78 229.545 292.78C229.052 292.78 228.605 292.9 228.205 293.14C227.805 293.367 227.492 293.693 227.265 294.12C227.038 294.533 226.925 295.033 226.925 295.62V302H225.065Z" fill="#FFF7F7"/>
</svg>
